<svg xmlns="http://www.w3.org/2000/svg" width="102.748" height="162.932" viewBox="0 0 102.748 162.932">
    <defs>
        <style>
            .cls-1{opacity:.2}.cls-2,.cls-3{fill:#fff}.cls-3{opacity:.12}.cls-4{fill:#db0010}
        </style>
    </defs>
    <g id="flag" transform="translate(-270.984 -594.605)">
        <g id="Group_1920" class="cls-1" data-name="Group 1920" transform="translate(329.045 723.032)">
            <path id="Path_54" d="M1225.26 1568.93c-.293.782-2.249 12.709-2.249 12.709h5.376l-2.151-12.9z" class="cls-2" data-name="Path 54" transform="translate(-1218.881 -1548.061)"/>
            <path id="Path_55" d="M1173.415 1291.369l-5.683 6.616a.823.823 0 0 0 .624 1.359h1.5a.823.823 0 0 1 .69 1.271l-2.551 3.931a.823.823 0 0 0 .628 1.268l1.877.141a.823.823 0 0 1 .679 1.179l-2.473 5.1a.823.823 0 0 0 .741 1.182h10.74a.823.823 0 0 0 .758-1.143l-2.069-4.9a.823.823 0 0 1 .73-1.142l.729-.025a.823.823 0 0 0 .7-1.208l-2.652-5a.823.823 0 0 1 .726-1.208.823.823 0 0 0 .631-1.351l-5.066-6.057a.823.823 0 0 0-1.254-.008z" class="cls-2" data-name="Path 55" transform="translate(-1167.533 -1291.083)"/>
        </g>
        <path id="Path_56" d="M458.616 1722.152a14.671 14.671 0 0 1-27.507 7.1 14.671 14.671 0 0 1-21.368 2.331 14.669 14.669 0 1 1-8.382-26.709q.246 0 .489.008a14.671 14.671 0 0 1 27.745-5.921 14.677 14.677 0 0 1 21.177 10.2 14.667 14.667 0 0 1 7.845 12.99z" class="cls-3" data-name="Path 56" transform="translate(-84.885 -1096.31)"/>
        <path id="Path_57" d="M386.69 1712.532a10.324 10.324 0 0 0 19.31 4.914 10.395 10.395 0 0 0 15 1.615 10.349 10.349 0 0 0 5.883 1.824 10.151 10.151 0 1 0 0-20.3c-.115 0-.229 0-.344.007a10.328 10.328 0 0 0-19.474-4.1 10.354 10.354 0 0 0-14.869 7.059 10.133 10.133 0 0 0-5.5 8.979z" class="cls-3" data-name="Path 57" transform="translate(-115.706 -1065.936)"/>
        <g id="Group_1921" data-name="Group 1921" transform="translate(315.316 656.746)">
            <path id="Path_58" d="M945.292 2975.824s-14.67 9.139-24.049 4.81-12.506-6.013-12.506-6.013v14.186s10.1 7.7 21.644 5.531 14.186-5.05 14.186-5.05z" class="cls-4" data-name="Path 58" transform="translate(-908.738 -2974.621)"/>
            <path id="Path_59" d="M945.292 3193.535s-14.67 9.139-24.049 4.81-12.506-6.013-12.506-6.013v14.186s10.1 7.7 21.644 5.531 14.186-5.05 14.186-5.05z" class="cls-2" data-name="Path 59" transform="translate(-908.738 -3180.788)"/>
            <path id="Path_60" d="M1544.748 3099.906h2.815v-99.257h-1.141z" class="cls-2" data-name="Path 60" transform="translate(-1511.026 -2999.269)"/>
            <path id="Path_61" d="M1476.983 4765.581h10.251l-.641-6.152h-8.842z" class="cls-2" data-name="Path 61" transform="translate(-1446.854 -4664.791)"/>
        </g>
    </g>
</svg>
